<svg xmlns="http://www.w3.org/2000/svg" xmlns:xlink="http://www.w3.org/1999/xlink" width="14" height="14" viewBox="0 0 14 14">
  <defs>
    <path id="shape2-a" d="M14.7741935,8.16370968 C14.7741935,12.1576613 12.0391129,15 8,15 C4.12741935,15 1,11.8725806 1,8 C1,4.12741935 4.12741935,1 8,1 C9.88548387,1 11.4717742,1.69153226 12.6939516,2.83185484 L10.7887097,4.66370968 C8.29637097,2.25887097 3.66169355,4.06532258 3.66169355,8 C3.66169355,10.4415323 5.61209677,12.4201613 8,12.4201613 C10.7717742,12.4201613 11.8104839,10.4330645 11.9741935,9.40282258 L8,9.40282258 L8,6.99516129 L14.6641129,6.99516129 C14.7290323,7.35362903 14.7741935,7.69798387 14.7741935,8.16370968 Z"/>
  </defs>
  <use fill="#FFF" transform="translate(-1 -1)" xlink:href="#shape2-a"/>
</svg>
